# xmcd CD database file
#
# Track frame offsets:
#	150
#	23372
#	49719
#	78722
#	104158
#	127559
#	150742
#	173065
#	197213
#	221308
#	244527
#
# Disc length: 3929 seconds
#
# Revision: 0
# Processed by: cddbd v1.5.1PL2 Copyright (c) Steve Scherf et al.
# Submitted via: CDex 1.51
#
DISCID=840f570b
DTITLE=Bingle  - Tai Chi Music
DYEAR=2006
DGENRE=New Age
TTITLE0=Lets Get It (Original Mix)
TTITLE1=Tribe
TTITLE2=Can Yout Feel It
TTITLE3=Oceandrive
TTITLE4=Moving Jungle
TTITLE5=Take A Seed
TTITLE6=From Soul To You
TTITLE7=In The Mood Of ...
TTITLE8=Blaze Me Back
TTITLE9=Letzs Get It (Alternative Version)
TTITLE10=Tai See
EXTD=YEAR: 2006
EXTT0=
EXTT1=
EXTT2=
EXTT3=
EXTT4=
EXTT5=
EXTT6=
EXTT7=
EXTT8=
EXTT9=
EXTT10=
PLAYORDER=
